<svg overflow="visible" style="display: block;" viewBox="0 0 24 24" fill="none" xmlns="http://www.w3.org/2000/svg">
<g id="arrow_forward">
<path id="arrow_forward_2" d="M16.175 12.588H5C4.71667 12.588 4.47917 12.4922 4.2875 12.3005C4.09583 12.1088 4 11.8713 4 11.588C4 11.3047 4.09583 11.0672 4.2875 10.8755C4.47917 10.6838 4.71667 10.588 5 10.588H16.175L11.275 5.688C11.075 5.488 10.9792 5.25467 10.9875 4.988C10.9958 4.72133 11.1 4.488 11.3 4.288C11.5 4.10467 11.7333 4.00883 12 4.0005C12.2667 3.99217 12.5 4.088 12.7 4.288L19.3 10.888C19.4 10.988 19.4708 11.0963 19.5125 11.213C19.5542 11.3297 19.575 11.4547 19.575 11.588C19.575 11.7213 19.5542 11.8463 19.5125 11.963C19.4708 12.0797 19.4 12.188 19.3 12.288L12.7 18.888C12.5167 19.0713 12.2875 19.163 12.0125 19.163C11.7375 19.163 11.5 19.0713 11.3 18.888C11.1 18.688 11 18.4505 11 18.1755C11 17.9005 11.1 17.663 11.3 17.463L16.175 12.588Z" fill="var(--fill-0, white)"/>
</g>
</svg>
