<svg overflow="visible" style="display: block;" viewBox="0 0 28.5085 28" fill="none" xmlns="http://www.w3.org/2000/svg">
<g id="Chat">
<g id="Union">
<path d="M14.5085 0.5C21.9643 0.500071 28.0085 6.5442 28.0085 14C28.0085 21.4558 21.9643 27.4999 14.5085 27.5C12.0884 27.5 9.8173 26.8626 7.85312 25.7474C7.61646 25.613 7.33732 25.5704 7.07414 25.6397L1.75663 27.0397C0.996382 27.2399 0.313105 26.5249 0.547502 25.7745L2.25605 20.3048C2.33227 20.0608 2.31062 19.7975 2.20513 19.5647C1.43648 17.8679 1.00853 15.984 1.00853 14C1.00853 6.54416 7.05269 0.5 14.5085 0.5Z" fill="url(#paint0_linear_0_171)"/>
<path d="M14.5085 0.5L14.5085 0H14.5085V0.5ZM14.5085 27.5V28H14.5085L14.5085 27.5ZM2.20513 19.5647L2.66057 19.3583L2.20513 19.5647ZM0.547502 25.7745L0.0702436 25.6255L0.547502 25.7745ZM7.85312 25.7474L7.60624 26.1822L7.85312 25.7474ZM7.07414 25.6397L7.20144 26.1232L7.07414 25.6397ZM14.5085 0.5L14.5085 1C21.6882 1.00007 27.5085 6.82035 27.5085 14H28.0085H28.5085C28.5085 6.26805 22.2405 7.33137e-05 14.5085 0L14.5085 0.5ZM28.0085 14H27.5085C27.5085 21.1797 21.6882 26.9999 14.5085 27L14.5085 27.5L14.5085 28C22.2405 27.9999 28.5085 21.7319 28.5085 14H28.0085ZM14.5085 27.5V27C12.1773 27 9.99096 26.3863 8.1 25.3126L7.85312 25.7474L7.60624 26.1822C9.64363 27.339 11.9996 28 14.5085 28V27.5ZM7.07414 25.6397L6.94683 25.1562L1.62932 26.5562L1.75663 27.0397L1.88394 27.5233L7.20144 26.1232L7.07414 25.6397ZM0.547502 25.7745L1.02476 25.9236L2.73331 20.4539L2.25605 20.3048L1.77879 20.1557L0.0702436 25.6255L0.547502 25.7745ZM2.20513 19.5647L2.66057 19.3583C1.92071 17.7251 1.50853 15.9114 1.50853 14H1.00853H0.508534C0.508534 16.0565 0.952254 18.0107 1.74968 19.771L2.20513 19.5647ZM1.00853 14H1.50853C1.50853 6.8203 7.32883 1 14.5085 1V0.5V0C6.77655 0 0.508534 6.26801 0.508534 14H1.00853ZM2.25605 20.3048L2.73331 20.4539C2.8484 20.0854 2.81344 19.6958 2.66057 19.3583L2.20513 19.5647L1.74968 19.771C1.80779 19.8993 1.81614 20.0362 1.77879 20.1557L2.25605 20.3048ZM1.75663 27.0397L1.62932 26.5562C1.2492 26.6563 0.907562 26.2988 1.02476 25.9236L0.547502 25.7745L0.0702436 25.6255C-0.281352 26.7511 0.743562 27.8235 1.88394 27.5233L1.75663 27.0397ZM7.85312 25.7474L8.1 25.3126C7.75712 25.1179 7.34427 25.0515 6.94683 25.1562L7.07414 25.6397L7.20144 26.1232C7.33037 26.0893 7.47579 26.1081 7.60624 26.1822L7.85312 25.7474Z" fill="url(#paint1_linear_0_171)"/>
</g>
<rect id="Rectangle 12" x="6.0084" y="7.5" width="12" height="12" rx="1" fill="var(--fill-0, white)"/>
<path id="Vector 3" d="M22.2084 9.1L19.4084 11.2C19.1566 11.3889 19.0084 11.6852 19.0084 12V15.882C19.0084 16.2607 19.2224 16.607 19.5612 16.7764L22.2848 18.1382C22.6172 18.3044 23.0084 18.0627 23.0084 17.691V9.5C23.0084 9.08798 22.538 8.85279 22.2084 9.1Z" fill="var(--fill-0, white)"/>
</g>
<defs>
<linearGradient id="paint0_linear_0_171" x1="6.00831" y1="3" x2="25.0083" y2="24.0001" gradientUnits="userSpaceOnUse">
<stop stop-color="#C4C4C4"/>
<stop offset="0.0001" stop-color="#8874BE"/>
<stop offset="1" stop-color="#6163CB"/>
</linearGradient>
<linearGradient id="paint1_linear_0_171" x1="5.50831" y1="1.5" x2="25.0083" y2="26.0001" gradientUnits="userSpaceOnUse">
<stop stop-color="#8B76BD"/>
<stop offset="1" stop-color="#5E62CC"/>
</linearGradient>
</defs>
</svg>
