<svg overflow="visible" style="display: block;" viewBox="0 0 48 48" fill="none" xmlns="http://www.w3.org/2000/svg">
<g id="close">
<rect width="48" height="48" rx="24" fill="var(--fill-0, #C6C6C6)"/>
<path id="close_2" d="M24 26.1293L16.5475 33.5817C16.2687 33.8606 15.9138 34 15.4829 34C15.052 34 14.6971 33.8606 14.4183 33.5817C14.1394 33.3029 14 32.948 14 32.5171C14 32.0862 14.1394 31.7313 14.4183 31.4525L21.8707 24L14.4183 16.5475C14.1394 16.2687 14 15.9138 14 15.4829C14 15.052 14.1394 14.6971 14.4183 14.4183C14.6971 14.1394 15.052 14 15.4829 14C15.9138 14 16.2687 14.1394 16.5475 14.4183L24 21.8707L31.4525 14.4183C31.7313 14.1394 32.0862 14 32.5171 14C32.948 14 33.3029 14.1394 33.5817 14.4183C33.8606 14.6971 34 15.052 34 15.4829C34 15.9138 33.8606 16.2687 33.5817 16.5475L26.1293 24L33.5817 31.4525C33.8606 31.7313 34 32.0862 34 32.5171C34 32.948 33.8606 33.3029 33.5817 33.5817C33.3029 33.8606 32.948 34 32.5171 34C32.0862 34 31.7313 33.8606 31.4525 33.5817L24 26.1293Z" fill="var(--fill-0, black)"/>
</g>
</svg>
