<svg overflow="visible" style="display: block;" viewBox="0 0 30 30" fill="none" xmlns="http://www.w3.org/2000/svg">
<g id="Microsoft edge" clip-path="url(#clip0_0_147)">
<path id="Vector" d="M27.0759 22.329C26.6759 22.5382 26.2634 22.7225 25.8407 22.8809C24.4954 23.3843 23.0702 23.6408 21.6337 23.6379C16.0884 23.6379 11.2579 19.8235 11.2579 14.9286C11.265 14.272 11.4472 13.6293 11.7857 13.0667C12.1241 12.5041 12.6066 12.042 13.1833 11.7282C8.16768 11.9391 6.87862 17.1657 6.87862 20.2278C6.87862 28.8856 14.8579 29.7633 16.5771 29.7633C17.504 29.7633 18.9021 29.4938 19.7411 29.229L19.8946 29.1774C23.1234 28.0612 25.876 25.879 27.6993 22.9899C27.7552 22.9019 27.7801 22.7978 27.7702 22.6941C27.7603 22.5904 27.7161 22.4929 27.6445 22.4171C27.573 22.3413 27.4783 22.2914 27.3753 22.2755C27.2723 22.2595 27.167 22.2783 27.0759 22.329Z" fill="url(#paint0_linear_0_147)"/>
<path id="Vector_2" opacity="0.35" d="M27.0759 22.329C26.6759 22.5382 26.2634 22.7225 25.8407 22.8809C24.4954 23.3843 23.0702 23.6408 21.6337 23.6379C16.0884 23.6379 11.2579 19.8235 11.2579 14.9286C11.265 14.272 11.4472 13.6293 11.7857 13.0667C12.1241 12.5041 12.6066 12.042 13.1833 11.7282C8.16768 11.9391 6.87862 17.1657 6.87862 20.2278C6.87862 28.8856 14.8579 29.7633 16.5771 29.7633C17.504 29.7633 18.9021 29.4938 19.7411 29.229L19.8946 29.1774C23.1234 28.0612 25.876 25.879 27.6993 22.9899C27.7552 22.9019 27.7801 22.7978 27.7702 22.6941C27.7603 22.5904 27.7161 22.4929 27.6445 22.4171C27.573 22.3413 27.4783 22.2914 27.3753 22.2755C27.2723 22.2595 27.167 22.2783 27.0759 22.329Z" fill="url(#paint1_radial_0_147)"/>
<path id="Vector_3" d="M12.3876 28.2914C11.3424 27.6427 10.4366 26.7926 9.7228 25.7906C8.90927 24.676 8.34944 23.3969 8.08259 22.0431C7.81574 20.6892 7.84833 19.2934 8.17806 17.9534C8.5078 16.6135 9.1267 15.3619 9.99135 14.2865C10.856 13.2111 11.9455 12.3379 13.1833 11.7281C13.549 11.5558 14.1736 11.2441 15.0044 11.2594C15.5898 11.2636 16.1662 11.4034 16.6885 11.6677C17.2108 11.932 17.6649 12.3137 18.015 12.7828C18.4882 13.4147 18.7491 14.1802 18.7603 14.9695C18.7603 14.9449 21.6267 5.64139 9.3853 5.64139C4.24077 5.64139 0.0102986 10.5234 0.0102986 14.8066C-0.00999367 17.0724 0.474799 19.3142 1.42944 21.3691C2.98959 24.6979 5.71786 27.3379 9.09619 28.7877C12.4745 30.2375 16.2676 30.3962 19.7552 29.2336C18.5341 29.6186 17.2439 29.7342 15.9738 29.5723C14.7037 29.4105 13.4838 28.9751 12.3982 28.2961L12.3876 28.2914Z" fill="url(#paint2_linear_0_147)"/>
<path id="Vector_4" opacity="0.41" d="M12.3876 28.2914C11.3424 27.6427 10.4366 26.7926 9.7228 25.7906C8.90927 24.676 8.34944 23.3969 8.08259 22.0431C7.81574 20.6892 7.84833 19.2934 8.17806 17.9534C8.5078 16.6135 9.1267 15.3619 9.99135 14.2865C10.856 13.2111 11.9455 12.3379 13.1833 11.7281C13.549 11.5558 14.1736 11.2441 15.0044 11.2594C15.5898 11.2636 16.1662 11.4034 16.6885 11.6677C17.2108 11.932 17.6649 12.3137 18.015 12.7828C18.4882 13.4147 18.7491 14.1802 18.7603 14.9695C18.7603 14.9449 21.6267 5.64139 9.3853 5.64139C4.24077 5.64139 0.0102986 10.5234 0.0102986 14.8066C-0.00999367 17.0724 0.474799 19.3142 1.42944 21.3691C2.98959 24.6979 5.71786 27.3379 9.09619 28.7877C12.4745 30.2375 16.2676 30.3962 19.7552 29.2336C18.5341 29.6186 17.2439 29.7342 15.9738 29.5723C14.7037 29.4105 13.4838 28.9751 12.3982 28.2961L12.3876 28.2914Z" fill="url(#paint3_radial_0_147)"/>
<path id="Vector_5" d="M17.8485 17.4445C17.7536 17.5676 17.4618 17.7375 17.4618 18.1078C17.4618 18.4137 17.661 18.7078 18.0149 18.9551C19.7 20.1269 22.877 19.9723 22.8852 19.9723C24.1339 19.9693 25.3589 19.6313 26.4325 18.9937C27.5155 18.3614 28.4144 17.4568 29.0399 16.3697C29.6655 15.2827 29.9959 14.051 29.9985 12.7969C30.0289 10.1707 29.061 8.42461 28.6696 7.65117C26.1864 2.79375 20.8262 7.34346e-08 14.9973 7.34346e-08C11.0553 -0.000389715 7.27165 1.55097 4.46459 4.31856C1.65753 7.08614 0.0527438 10.8475 -0.0026901 14.7891C0.0535599 10.507 4.30981 7.04883 9.37231 7.04883C9.78246 7.04883 12.1215 7.08867 14.2942 8.2289C16.209 9.23437 17.2122 10.4484 17.9094 11.652C18.6336 12.9023 18.7625 14.482 18.7625 15.1113C18.7625 15.7406 18.4414 16.6734 17.8485 17.4445Z" fill="url(#paint4_radial_0_147)"/>
<path id="Vector_6" d="M17.8485 17.4445C17.7536 17.5676 17.4618 17.7375 17.4618 18.1078C17.4618 18.4137 17.661 18.7078 18.0149 18.9551C19.7 20.1269 22.877 19.9723 22.8852 19.9723C24.1339 19.9693 25.3589 19.6313 26.4325 18.9937C27.5155 18.3614 28.4144 17.4568 29.0399 16.3697C29.6655 15.2827 29.9959 14.051 29.9985 12.7969C30.0289 10.1707 29.061 8.42461 28.6696 7.65117C26.1864 2.79375 20.8262 7.34346e-08 14.9973 7.34346e-08C11.0553 -0.000389715 7.27165 1.55097 4.46459 4.31856C1.65753 7.08614 0.0527438 10.8475 -0.0026901 14.7891C0.0535599 10.507 4.30981 7.04883 9.37231 7.04883C9.78246 7.04883 12.1215 7.08867 14.2942 8.2289C16.209 9.23437 17.2122 10.4484 17.9094 11.652C18.6336 12.9023 18.7625 14.482 18.7625 15.1113C18.7625 15.7406 18.4414 16.6734 17.8485 17.4445Z" fill="url(#paint5_radial_0_147)"/>
</g>
<defs>
<linearGradient id="paint0_linear_0_147" x1="6.87862" y1="20.7481" x2="27.7778" y2="20.7481" gradientUnits="userSpaceOnUse">
<stop stop-color="#0C59A4"/>
<stop offset="1" stop-color="#114A8B"/>
</linearGradient>
<radialGradient id="paint1_radial_0_147" cx="0" cy="0" r="1" gradientUnits="userSpaceOnUse" gradientTransform="translate(18.4216 20.9128) scale(11.1773 10.6185)">
<stop offset="0.72" stop-opacity="0"/>
<stop offset="0.95" stop-opacity="0.53"/>
<stop offset="1"/>
</radialGradient>
<linearGradient id="paint2_linear_0_147" x1="17.8966" y1="11.6824" x2="4.8431" y2="25.9008" gradientUnits="userSpaceOnUse">
<stop stop-color="#1B9DE2"/>
<stop offset="0.16" stop-color="#1595DF"/>
<stop offset="0.67" stop-color="#0680D7"/>
<stop offset="1" stop-color="#0078D4"/>
</linearGradient>
<radialGradient id="paint3_radial_0_147" cx="0" cy="0" r="1" gradientTransform="matrix(2.51789 -16.6181 -13.4288 -2.01431 8.2702 23.3213)" gradientUnits="userSpaceOnUse">
<stop offset="0.76" stop-opacity="0"/>
<stop offset="0.95" stop-opacity="0.5"/>
<stop offset="1"/>
</radialGradient>
<radialGradient id="paint4_radial_0_147" cx="0" cy="0" r="1" gradientTransform="matrix(-0.94889 23.7223 50.5284 1.89778 3.02807 5.55197)" gradientUnits="userSpaceOnUse">
<stop stop-color="#35C1F1"/>
<stop offset="0.11" stop-color="#34C1ED"/>
<stop offset="0.23" stop-color="#2FC2DF"/>
<stop offset="0.31" stop-color="#2BC3D2"/>
<stop offset="0.67" stop-color="#36C752"/>
</radialGradient>
<radialGradient id="paint5_radial_0_147" cx="0" cy="0" r="1" gradientTransform="matrix(3.19397 10.9507 8.89748 -2.62362 28.1308 9.07103)" gradientUnits="userSpaceOnUse">
<stop stop-color="#66EB6E"/>
<stop offset="1" stop-color="#66EB6E" stop-opacity="0"/>
</radialGradient>
<clipPath id="clip0_0_147">
<rect width="30" height="30" fill="white"/>
</clipPath>
</defs>
</svg>
