<svg overflow="visible" style="display: block;" viewBox="0 0 40 40" fill="none" xmlns="http://www.w3.org/2000/svg">
<g id="notifications">
<rect width="40" height="40" rx="8" fill="var(--fill-0, #1192E8)"/>
<path id="notifications_2" d="M13 27C12.7167 27 12.4792 26.9042 12.2875 26.7125C12.0958 26.5208 12 26.2833 12 26C12 25.7167 12.0958 25.4792 12.2875 25.2875C12.4792 25.0958 12.7167 25 13 25H14V18C14 16.6167 14.4167 15.3875 15.25 14.3125C16.0833 13.2375 17.1667 12.5333 18.5 12.2V11.5C18.5 11.0833 18.6458 10.7292 18.9375 10.4375C19.2292 10.1458 19.5833 10 20 10C20.4167 10 20.7708 10.1458 21.0625 10.4375C21.3542 10.7292 21.5 11.0833 21.5 11.5V12.2C22.8333 12.5333 23.9167 13.2375 24.75 14.3125C25.5833 15.3875 26 16.6167 26 18V25H27C27.2833 25 27.5208 25.0958 27.7125 25.2875C27.9042 25.4792 28 25.7167 28 26C28 26.2833 27.9042 26.5208 27.7125 26.7125C27.5208 26.9042 27.2833 27 27 27H13ZM20 30C19.45 30 18.9792 29.8042 18.5875 29.4125C18.1958 29.0208 18 28.55 18 28H22C22 28.55 21.8042 29.0208 21.4125 29.4125C21.0208 29.8042 20.55 30 20 30ZM16 25H24V18C24 16.9 23.6083 15.9583 22.825 15.175C22.0417 14.3917 21.1 14 20 14C18.9 14 17.9583 14.3917 17.175 15.175C16.3917 15.9583 16 16.9 16 18V25Z" fill="var(--fill-0, white)"/>
</g>
</svg>
